<?xml version="1.0" encoding="iso-8859-1"?>
<!-- Generator: Adobe Illustrator 19.0.0, SVG Export Plug-In . SVG Version: 6.00 Build 0)  -->
<svg xmlns="http://www.w3.org/2000/svg" xmlns:xlink="http://www.w3.org/1999/xlink" version="1.1" id="Capa_1" x="0px" y="0px" viewBox="0 0 512 512" style="enable-background:new 0 0 512 512;" xml:space="preserve" width="512px" height="512px">
<g>
	<g>
		<path d="M256,0C114.844,0,0,114.844,0,256s114.844,256,256,256s256-114.844,256-256S397.156,0,256,0z M341.333,170.667    c11.76,0,21.333,9.573,21.333,21.333s-9.573,21.333-21.333,21.333C329.573,213.333,320,203.76,320,192    S329.573,170.667,341.333,170.667z M170.667,170.667c11.76,0,21.333,9.573,21.333,21.333s-9.573,21.333-21.333,21.333    c-11.76,0-21.333-9.573-21.333-21.333S158.906,170.667,170.667,170.667z M379.74,381.865c-1.927,1.438-4.167,2.135-6.396,2.135    c-3.25,0-6.448-1.469-8.542-4.26c-1.167-1.51-30.573-38.396-108.802-38.406h-0.031c-78.208,0-107.604,36.885-108.813,38.458    c-3.573,4.635-10.26,5.542-14.927,2c-4.667-3.552-5.615-10.167-2.094-14.854C131.573,365.021,166.354,320,255.969,320H256    c89.635,0.01,124.427,45.021,125.865,46.927C385.406,371.646,384.448,378.333,379.74,381.865z" fill="#D80027"/>
	</g>
</g>
<g>
</g>
<g>
</g>
<g>
</g>
<g>
</g>
<g>
</g>
<g>
</g>
<g>
</g>
<g>
</g>
<g>
</g>
<g>
</g>
<g>
</g>
<g>
</g>
<g>
</g>
<g>
</g>
<g>
</g>
</svg>
