<?xml version="1.0" encoding="iso-8859-1"?>
<!-- Generator: Adobe Illustrator 19.0.0, SVG Export Plug-In . SVG Version: 6.00 Build 0)  -->
<svg xmlns="http://www.w3.org/2000/svg" xmlns:xlink="http://www.w3.org/1999/xlink" version="1.1" id="Capa_1" x="0px" y="0px" viewBox="0 0 512 512" style="enable-background:new 0 0 512 512;" xml:space="preserve" width="512px" height="512px">
<g>
	<g>
		<path d="M256,0C114.844,0,0,114.844,0,256s114.844,256,256,256s256-114.844,256-256S397.156,0,256,0z M341.333,170.667    c11.76,0,21.333,9.573,21.333,21.333s-9.573,21.333-21.333,21.333C329.573,213.333,320,203.76,320,192    S329.573,170.667,341.333,170.667z M170.667,170.667c11.76,0,21.333,9.573,21.333,21.333s-9.573,21.333-21.333,21.333    c-11.76,0-21.333-9.573-21.333-21.333S158.906,170.667,170.667,170.667z M401.292,311.958    C385.26,379.5,325.51,426.667,256,426.667c-69.594,0-129.365-47.24-145.344-114.885c-1.354-5.729,2.198-11.479,7.938-12.833    c5.688-1.302,11.469,2.188,12.833,7.938c13.688,57.958,64.917,98.448,124.573,98.448c59.583,0,110.792-40.427,124.542-98.313    c1.354-5.729,7.063-9.292,12.844-7.906C399.115,300.469,402.656,306.219,401.292,311.958z" fill="#2bd900"/>
	</g>
</g>
<g>
</g>
<g>
</g>
<g>
</g>
<g>
</g>
<g>
</g>
<g>
</g>
<g>
</g>
<g>
</g>
<g>
</g>
<g>
</g>
<g>
</g>
<g>
</g>
<g>
</g>
<g>
</g>
<g>
</g>
</svg>
